# xmcd
#
# Track frame offsets: 
#        150
#        16025
#        27264
#        36780
#        52108
#        65125
#        75683
#        85841
#        98642
#        110029
#        124962
#        137275
#        151155
#        161749
#        172168
#        184124
#        194172
#        207473
#        218736
#        228635
#
# Disc length: 3240 seconds
#
# Revision: 0
# Processed by: cddbd v1.5.2PL0 Copyright (c) Steve Scherf et al.
# Submitted via: ExactAudioCopyFreeDBPlugin 1.0
#
DISCID=1e0ca614
DTITLE=Various Artist - The Best Northern Soul Album
DYEAR=1900
DGENRE=Northern Soul
TTITLE0=Al Wilson - The Snake
TTITLE1=Robert Knight - Love On A Mountain Top
TTITLE2=James and Bobby Purify - Shake A Tail Feather
TTITLE3=Eloise Laws - Love Factory
TTITLE4=Lee Dorsey - Ride Your Pony
TTITLE5=The O'Jays - I Dig Your Act
TTITLE6=The Olympics - The Same Old Thing
TTITLE7=Spiral Staircase - More Today Than Yesterday
TTITLE8=The Cavaliers - Hold To My Baby
TTITLE9=Patti Austin - Didn't Say A Word
TTITLE10=Percy Wiggins - It Didn't Take Much (For Me To Fall In Love)
TTITLE11=George Carrow - Angel Baby
TTITLE12=Christopher Cerf - Sweet Music
TTITLE13=Beverly Ann - You've Got Your Mind On Other Things
TTITLE14=Lorraine Chandler - What Can I Do
TTITLE15=Major Lance - You Don't Want Me No More
TTITLE16=Sandi Sheldon - You're Gonna Make Me Love You
TTITLE17=The Jades - I'm Where It's At
TTITLE18=The Vibrations - Cause You're Mine
TTITLE19=Bettye Swann - Make Me Yours
EXTD=
EXTT0=
EXTT1=
EXTT2=
EXTT3=
EXTT4=
EXTT5=
EXTT6=
EXTT7=
EXTT8=
EXTT9=
EXTT10=
EXTT11=
EXTT12=
EXTT13=
EXTT14=
EXTT15=
EXTT16=
EXTT17=
EXTT18=
EXTT19=
PLAYORDER=
